Coordinates
version=1
nRows=16
nColumns=36
inDegrees=yes

Units are S.I. units (second, meters, Newtons, ...)
If the header above contains a line with 'inDegrees', this indicates whether rotational values are in degrees (yes) or radians (no).

endheader
time	pelvis_tilt	pelvis_list	pelvis_rotation	pelvis_tx	pelvis_ty	pelvis_tz	hip_flexion_r	hip_adduction_r	hip_rotation_r	knee_angle_r	knee_angle_r_beta	ankle_angle_r	subtalar_angle_r	mtp_angle_r	hip_flexion_l	hip_adduction_l	hip_rotation_l	knee_angle_l	knee_angle_l_beta	ankle_angle_l	subtalar_angle_l	mtp_angle_l	lumbar_extension	lumbar_bending	lumbar_rotation	arm_flex_r	arm_add_r	arm_rot_r	elbow_flex_r	pro_sup_r	arm_flex_l	arm_add_l	arm_rot_l	elbow_flex_l	pro_sup_l
      0.00000000	     -0.23545641	      1.45176731	      3.93865686	      0.18261437	      0.92362591	     -0.04436669	     -4.87614480	      2.15236125	      0.79855884	      0.48537504	      0.00847139	      6.40496098	     -5.43476034	     -7.58947989	     -2.27974310	     -2.01559717	      2.81386815	      2.03136885	      0.03545407	      8.23090026	     -5.13585608	     -7.58947989	      0.91753129	      3.67795938	     -2.77816360	     36.57165980	     12.77038044	     53.94582481	    123.45071008	    102.33837423	     28.92212638	      1.12196812	     26.45687215	    134.37101734	    103.91863812
      0.01666670	     -2.88549465	      1.70616210	      3.30422610	      0.18191547	      0.91785583	     -0.04430362	     -1.52014108	      1.74222566	      2.39083936	      0.49388673	      0.00861995	      8.71383468	     -3.93563161	     -7.56916027	      0.56768491	     -1.21199481	      3.03094618	      1.77882660	      0.03104638	      6.40031099	     -4.71238880	     -7.56916027	      4.68969099	      3.82186699	     -2.14660739	     37.19520584	     12.68212491	     54.59886843	    125.95102031	     99.83225385	     29.94906948	      1.25330183	     26.04408087	    134.78138458	    100.67955145
      0.03333330	     -4.08522599	      2.36689714	      2.27407761	      0.18369698	      0.91529117	     -0.04251706	     -0.26581380	      0.99762958	      2.70971805	      0.40988579	      0.00715386	      8.85564779	     -3.72144326	     -7.56783215	      1.69648408	     -0.52067391	      1.78731318	      1.70712983	      0.02979504	      5.58234916	     -4.41605615	     -7.56783215	      5.92591364	      3.13518541	     -1.07008564	     36.48549904	     12.82716422	     56.64931403	    127.33840688	     99.94941036	     30.28825484	      1.23320712	     27.85118146	    135.28530081	    100.63403480
      0.05000000	     -4.38744048	      2.86821955	      1.69094318	      0.18236058	      0.91657692	     -0.04167526	      0.16252019	      0.44057742	      3.03198699	      0.36394549	      0.00635205	      9.01409997	     -3.75057538	     -7.55139146	      1.74721987	      0.03442372	      1.29853508	      1.30519184	      0.02277989	      5.08817632	     -4.56771448	     -7.55139146	      5.89457645	      2.26196779	      0.06857638	     34.86083128	     12.69525453	     58.28837093	    128.67502210	     98.85349425	     31.80080248	      1.36292899	     31.79088295	    132.04151452	     97.99726225
      0.06666670	     -4.70438959	      3.13241207	      1.15571911	      0.18510973	      0.91470182	     -0.03912685	      0.48292933	      0.22851403	      3.24462262	      0.32493152	      0.00567112	      9.02895893	     -3.85397327	     -7.55042590	      1.80323415	      0.26831518	      0.79578653	      0.96978651	      0.01692597	      4.81449043	     -4.66935211	     -7.55042590	      5.97574840	      2.10890828	      0.08072050	     34.23838231	     13.00502340	     59.70156993	    128.46864682	     98.72608418	     32.89800136	      1.41387740	     33.64872823	    130.26712265	     97.85120184
      0.08333330	     -4.93014696	      3.29834370	      0.69719365	      0.18504750	      0.91577756	     -0.03785373	      0.72721315	      0.13047682	      3.76025577	      0.29789435	      0.00519924	      8.93240027	     -4.24150964	     -7.53445683	      1.94290566	      0.42600758	      0.48657990	      0.81575006	      0.01423752	      4.84211846	     -4.97353936	     -7.53445683	      5.93334739	      1.75597592	      0.93617441	     33.53543762	     12.77008345	     60.69917344	    129.39823078	     93.54898324	     34.50606083	      2.25471640	     37.02503956	    127.29045270	     92.56866179
      0.10000000	     -5.13177916	      3.36555293	      0.27758043	      0.18435513	      0.91504275	     -0.03765140	      1.01292175	      0.08644616	      4.37096348	      0.27867581	      0.00486381	      8.91212658	     -4.68545200	     -7.53075154	      2.11021446	      0.48455797	      0.39104068	      0.73646628	      0.01285376	      4.90312454	     -5.22681984	     -7.53075154	      5.78189164	      1.62881228	      1.10982538	     33.64453815	     12.72699073	     61.10497905	    128.41382627	     91.88538326	     36.16696207	      3.02756332	     38.91467017	    125.03320852	     90.59709223
      0.11666670	     -5.39895459	      3.37896616	     -0.16400419	      0.18402004	      0.91103003	     -0.03784283	      1.34777573	      0.08846769	      5.01487749	      0.26630806	      0.00464795	      8.79543764	     -5.08079641	     -7.51912174	      2.34119911	      0.49823793	      0.16703285	      0.67545571	      0.01178893	      5.01281194	     -5.38261203	     -7.51912174	      5.84677283	      1.58366052	      1.07191192	     34.42257482	     12.74012167	     60.66100750	    126.76303473	     88.27543951	     37.52081717	      3.63893658	     40.39182187	    122.99985163	     86.48481948
      0.13333330	     -5.63898806	      3.32501236	     -0.46609962	      0.18393318	      0.91192832	     -0.03735493	      1.66118842	      0.14878002	      5.58516794	      0.25908556	      0.00452190	      8.82215813	     -5.22609026	     -7.51100191	      2.54231834	      0.44620769	      0.02968397	      0.66568707	      0.01161843	      5.26220092	     -5.39049338	     -7.51100191	      5.94581629	      1.59116933	      0.93333084	     35.08190316	     12.69324886	     60.49722395	    125.49422723	     90.03794812	     38.22466180	      4.19459081	     41.84575788	    121.71856927	     86.38922632
      0.15000000	     -5.79811657	      3.30145445	     -0.64921823	      0.18443940	      0.91076104	     -0.03703370	      1.84824711	      0.17923080	      5.83835340	      0.25366735	      0.00442733	      8.81140232	     -5.41431793	     -7.50757870	      2.69545761	      0.41875608	      0.33886188	      0.65919467	      0.01150512	      5.25867955	     -5.99783006	     -7.50757870	      5.94896429	      1.57748697	      0.48109639	     35.50466360	     12.77857015	     60.52824782	    124.55988492	     86.34225202	     38.63640168	      4.27268640	     42.39411519	    120.81006483	     82.55096575
      0.16666670	     -5.78975626	      3.24696045	     -0.78165196	      0.18354340	      0.91058550	     -0.03601482	      1.83002300	      0.26100905	      6.01739130	      0.24786969	      0.00432614	      8.79457421	     -5.42607999	     -7.50732663	      2.64120474	      0.33187440	      0.35119160	      0.66160667	      0.01154721	      5.42898997	     -6.04980113	     -7.50732663	      5.97381399	      1.58624382	      0.28853144	     35.94797134	     12.66016957	     60.25879485	    123.93006824	     85.87818448	     38.75372106	      4.29437569	     42.62566006	    119.91801228	     81.99646419
      0.18333330	     -5.65501406	      3.19942066	     -0.88198104	      0.18410516	      0.91085075	     -0.03523062	      1.66645271	      0.33063193	      6.23164051	      0.24209199	      0.00422530	      8.56722700	     -5.75645159	     -7.50537179	      2.47555736	      0.24531969	      0.32153361	      0.66934016	      0.01168219	      5.51934551	     -6.05612419	     -7.50537179	      6.01604202	      1.58235833	      0.25089098	     35.98956068	     12.58696013	     59.86587316	    123.92854446	     89.78935585	     38.44946065	      4.07844419	     42.21089036	    118.92785012	     83.48366709
      0.20000000	     -5.45961677	      3.17599255	     -0.95877206	      0.18722602	      0.91073634	     -0.03396350	      1.36472672	      0.40363622	      6.32026398	      0.23566296	      0.00411309	      8.43563921	     -5.93223372	     -7.50527439	      2.20010926	      0.14166971	      0.36516321	      0.67016162	      0.01169653	      5.58287119	     -6.05535083	     -7.50527439	      6.23712025	      1.45987339	     -0.15350695	     35.05416172	     12.53248248	     59.97530442	    125.01073868	     89.83507641	     37.38799239	      3.50181341	     40.37132379	    117.87448148	     83.31304751
      0.21666670	     -5.22269165	      3.13368782	     -1.03250929	      0.18637288	      0.91282874	     -0.03385889	      0.99970071	      0.49123646	      6.53381321	      0.23092194	      0.00403035	      8.23504835	     -6.33558281	     -7.50396078	      1.87054520	      0.03429510	      0.36726365	      0.67210667	      0.01173047	      5.64405474	     -6.10322984	     -7.50396078	      6.39130299	      1.42337600	     -0.31605846	     34.59092710	     11.90106400	     58.83945508	    124.93858306	     87.41550997	     36.35802657	      2.98246292	     37.23269839	    116.43171045	     80.47630371
      0.23333330	     -5.09443256	      3.15083365	     -1.12687646	      0.18532741	      0.91448382	     -0.03362278	      0.82248165	      0.49475222	      6.50181179	      0.22857301	      0.00398935	      8.24282674	     -6.31256779	     -7.50302250	      1.69762296	      0.01401564	      0.43734349	      0.64053373	      0.01117942	      5.71656454	     -6.08524482	     -7.50302250	      6.60499102	      1.45806061	      0.00130107	     34.59856100	     11.27737341	     57.95075987	    124.74730695	     84.34175059	     34.88966511	      2.75449125	     34.28698980	    115.81444832	     77.77565238
      0.25000000	     -4.93158365	      3.14725890	     -1.12590378	      0.18754613	      0.91237893	     -0.03296374	      0.57380201	      0.52788027	      6.69271639	      0.22294874	      0.00389119	      8.08770781	     -6.75391256	     -7.50221399	      1.46759270	     -0.03085640	      0.41256460	      0.64757871	      0.01130238	      5.68925589	     -6.10115379	     -7.50221399	      6.84227660	      1.48725211	      0.30258964	     34.71796501	     10.81232152	     56.55861793	    123.80579761	     88.61153754	     33.42197977	      2.61642239	     30.55184642	    115.15801063	     79.56503993
